<svg xmlns="http://www.w3.org/2000/svg" viewBox="0 0 120 120" fill="none">
  <defs>
    <linearGradient id="bg" x1="0" y1="0" x2="120" y2="120" gradientUnits="userSpaceOnUse">
      <stop offset="0%" stop-color="#0BD910"/>
      <stop offset="100%" stop-color="#00A804"/>
    </linearGradient>
  </defs>

  <!-- Green rounded square background -->
  <rect width="120" height="120" rx="24" fill="url(#bg)"/>

  <!-- Aspen tree — original image traced, black silhouette, centered -->
  <g transform="translate(-7,-46) scale(0.042) translate(0,5120) scale(1,-1)" fill="#000000" stroke="none">
    <path d="M1471 3603 c-40 -19 -62 -39 -84 -75 -24 -39 -35 -48 -58 -48 -39 0
-110 -57 -137 -110 -18 -36 -21 -56 -17 -102 2 -31 6 -62 7 -68 2 -6 -14 -17
-35 -25 -45 -15 -79 -45 -110 -94 -30 -49 -30 -153 0 -203 l21 -36 -25 -24
c-26 -24 -53 -79 -53 -107 0 -9 -16 -28 -35 -44 -41 -32 -75 -105 -75 -159 0
-71 52 -157 109 -179 17 -7 21 -13 15 -27 -5 -9 -8 -40 -8 -68 1 -81 48 -133
135 -149 27 -5 40 -15 54 -41 40 -74 145 -98 218 -49 51 35 66 70 73 173 l7
88 -79 115 c-44 64 -95 138 -113 165 -41 58 -30 50 101 -68 53 -48 99 -88 102
-88 3 0 6 26 6 58 0 55 18 270 44 537 l13 130 2 -207 c0 -115 4 -208 8 -208 4
0 59 51 122 113 113 112 124 118 69 42 -215 -300 -203 -281 -204 -338 0 -62
-12 -347 -19 -467 -3 -47 -7 -168 -11 -270 -3 -102 -7 -206 -10 -232 l-4 -48
71 0 71 0 -6 153 c-3 83 -9 213 -12 287 l-7 135 31 -28 c37 -36 91 -49 154
-37 88 17 123 44 158 124 19 41 25 47 45 42 53 -13 160 62 186 131 24 65 -2
184 -50 227 -15 14 -21 31 -21 60 0 23 -7 51 -15 62 -13 19 -12 23 4 41 63 67
75 190 29 278 -29 55 -52 78 -104 102 -32 16 -33 18 -19 40 22 33 30 132 15
179 -29 88 -88 133 -190 143 -36 3 -64 11 -64 16 3 16 -27 88 -45 109 -9 10
-36 32 -60 48 -60 38 -126 38 -200 1z"/>
  </g>
</svg>
